<svg xmlns="http://www.w3.org/2000/svg" viewBox="0 0 325.38 325"><defs><style>.cls-1,.cls-4{fill:#231f20;}.cls-2,.cls-3{fill:#fff;}.cls-2,.cls-4{stroke:#fff;}.cls-2{stroke-miterlimit:10;stroke-width:0.75px;}</style></defs><title>logo</title><g id="Layer_2" data-name="Layer 2"><g id="Layer_1-2" data-name="Layer 1"><circle class="cls-1" cx="162.88" cy="162.5" r="162.5"/><rect class="cls-2" x="54.23" y="16.19" width="0.3" height="36"/><rect class="cls-2" x="0.38" y="70.04" width="36" height="0.3"/><rect class="cls-2" x="0.38" y="254.66" width="36" height="0.3"/><rect class="cls-2" x="54.23" y="272.81" width="0.3" height="36"/><path class="cls-3" d="M59.48,187H39v-7.41H88.88V187H68.28v60h-8.8Z"/><path class="cls-4" d="M96.9,132.3H72.71v22.44h27v6.74h-35V99.24H98.29V106H72.71v19.67H96.9Z"/><path class="cls-4" d="M134.58,161.48l-.64-5.63h-.28A16.66,16.66,0,0,1,120,162.5c-9,0-13.67-6.37-13.67-12.84,0-10.8,9.61-16.71,26.88-16.62v-.93c0-3.69-1-10.34-10.16-10.34a22.2,22.2,0,0,0-11.64,3.33l-1.85-5.36a27.77,27.77,0,0,1,14.69-4c13.67,0,17,9.33,17,18.28v16.72a63.25,63.25,0,0,0,.74,10.71Zm-1.2-22.81c-8.86-.18-18.93,1.39-18.93,10.07,0,5.26,3.51,7.76,7.66,7.76A11.13,11.13,0,0,0,132.92,149a8.47,8.47,0,0,0,.46-2.59Z"/><path class="cls-4" d="M154.34,130.73c0-5.27-.09-9.79-.37-13.95h7.12l.27,8.78h.37c2-6,6.93-9.79,12.38-9.79a9,9,0,0,1,2.31.27v7.67a12.51,12.51,0,0,0-2.77-.28c-5.73,0-9.79,4.34-10.9,10.44a22.33,22.33,0,0,0-.37,3.79v23.82h-8Z"/><path class="cls-4" d="M196.55,104v12.83h11.63V123H196.55v24.11c0,5.54,1.57,8.68,6.09,8.68a17.83,17.83,0,0,0,4.71-.56l.37,6.1a19.79,19.79,0,0,1-7.2,1.11c-3.79,0-6.84-1.2-8.78-3.42-2.3-2.4-3.14-6.37-3.14-11.64V123h-6.92v-6.19h6.92V106.07Z"/><path class="cls-4" d="M217.32,95.91h8.13V123.8h.19a15,15,0,0,1,5.81-5.72,16.73,16.73,0,0,1,8.32-2.31c6,0,15.61,3.69,15.61,19.12v26.59h-8.13V135.81c0-7.2-2.68-13.3-10.35-13.3A11.66,11.66,0,0,0,226,130.64a9.7,9.7,0,0,0-.56,3.88v27h-8.13Z"/><path class="cls-3" d="M132.78,222.4c0,17.9-12.4,25.7-24.1,25.7-13.11,0-23.21-9.6-23.21-24.9,0-16.2,10.6-25.7,24-25.7C123.38,197.5,132.78,207.6,132.78,222.4Zm-38.4.5c0,10.6,6.09,18.6,14.7,18.6,8.4,0,14.7-7.9,14.7-18.8,0-8.2-4.1-18.6-14.5-18.6S94.38,213.7,94.38,222.9Z"/><path class="cls-3" d="M185.68,176V234.5c0,4.3.1,9.2.4,12.5h-7.9l-.4-8.4h-.2c-2.7,5.4-8.6,9.5-16.5,9.5-11.71,0-20.71-9.9-20.71-24.6-.1-16.1,9.9-26,21.71-26,7.4,0,12.4,3.5,14.6,7.4h.2V176Zm-8.8,42.31a15.53,15.53,0,0,0-.4-3.7,12.94,12.94,0,0,0-12.7-10.2c-9.11,0-14.51,8-14.51,18.7,0,9.8,4.8,17.9,14.31,17.9a13.23,13.23,0,0,0,12.9-10.5,15.29,15.29,0,0,0,.4-3.8Z"/><path class="cls-3" d="M227.08,247l-.7-6.1h-.31a18,18,0,0,1-14.8,7.2c-9.8,0-14.8-6.9-14.8-13.9,0-11.7,10.4-18.1,29.1-18v-1c0-4-1.1-11.2-11-11.2a24.11,24.11,0,0,0-12.6,3.6l-2-5.8a30,30,0,0,1,15.9-4.3c14.8,0,18.41,10.1,18.41,19.8v18.1a68.15,68.15,0,0,0,.8,11.6Zm-1.31-24.7c-9.6-.2-20.5,1.5-20.5,10.9,0,5.7,3.8,8.4,8.3,8.4a12,12,0,0,0,11.7-8.1,9.18,9.18,0,0,0,.5-2.8Z"/><path class="cls-3" d="M250.87,198.6l10.6,28.6c1.1,3.2,2.3,7,3.1,9.9h.2c.9-2.9,1.9-6.6,3.1-10.1l9.6-28.4h9.31l-13.21,34.5c-6.3,16.6-10.6,25.1-16.6,30.3a23.84,23.84,0,0,1-10.8,5.7l-2.2-7.4a23.28,23.28,0,0,0,7.7-4.3,26.68,26.68,0,0,0,7.4-9.8,6.32,6.32,0,0,0,.7-2.1,7.67,7.67,0,0,0-.6-2.3l-17.9-44.6Z"/></g></g></svg>